<svg id="Layer_1" data-name="Layer 1" xmlns="http://www.w3.org/2000/svg" viewBox="0 0 103.36 122.88"><defs><style>.cls-1{fill-rule:evenodd;}</style></defs><title>water</title><path class="cls-1" d="M64.66,7.48c7.83,33.51,38.7,57.89,38.7,77.66,0,47.88-70,50.2-76.82,6.94a31.53,31.53,0,0,1-15-4.93,24.91,24.91,0,0,1-8.26-9.08A28.3,28.3,0,0,1,.05,66.14c-.44-8.2,2.19-17.44,8-26.24l3.29-4.85c6.51-9.53,13.93-20.38,16.8-32.82a2.87,2.87,0,0,1,5.6,0C36.67,14.6,44.08,25.45,50.59,35l1.33,2c5.43-9,10.26-18.72,12.74-29.46ZM26,86.26c0-.38,0-.74,0-1.12C26,72.88,37.75,59,48.59,42.27l-2.75-4.05c-5.23-7.67-11-16.16-14.85-25.8-3.81,9.7-9.62,18.19-14.86,25.87l-3.25,4.79c-5.15,7.74-7.47,15.75-7.1,22.77a22.57,22.57,0,0,0,2.55,9.52,19.25,19.25,0,0,0,6.37,7A25.53,25.53,0,0,0,26,86.26Zm15.08-6.77a3.92,3.92,0,0,1,7.81-.71,37.8,37.8,0,0,0,3.81,14.16A25,25,0,0,0,62.5,103a3.92,3.92,0,1,1-4,6.76A32.68,32.68,0,0,1,45.78,96.6a45.8,45.8,0,0,1-4.67-17.11Z"/></svg>